<svg width="27" height="25" viewBox="0 0 27 25" fill="none" xmlns="http://www.w3.org/2000/svg">
<g clip-path="url(#clip0_68_4)">
<path d="M25.8491 7.18738C27.3011 7.18738 28.4378 7.64021 29.2591 8.54588C30.0951 9.45154 30.5131 10.7862 30.5131 12.5499V19.819H28.9511V12.7167C28.9511 11.4138 28.6578 10.4208 28.0711 9.73754C27.4991 9.05432 26.6851 8.71271 25.6291 8.71271C24.4264 8.71271 23.4804 9.11788 22.7911 9.92821C22.1018 10.7227 21.7571 11.8269 21.7571 13.241V19.819H20.1951V12.7167C20.1951 11.4138 19.9018 10.4208 19.3151 9.73754C18.7431 9.05432 17.9218 8.71271 16.8511 8.71271C15.6631 8.71271 14.7171 9.11788 14.0131 9.92821C13.3238 10.7227 12.9791 11.8269 12.9791 13.241L12.9131 9.57071C13.3238 8.80804 13.8958 8.22015 14.6291 7.80704C15.3624 7.39394 16.2058 7.18738 17.1591 7.18738C18.1271 7.18738 18.9631 7.40982 19.6671 7.85471C20.3858 8.2996 20.9211 8.95899 21.2731 9.83288C21.6984 9.00665 22.3071 8.36315 23.0991 7.90238C23.9058 7.42571 24.8224 7.18738 25.8491 7.18738V7.18738Z" fill="#90CEA1"/>
<path d="M17.119 7.18417C18.571 7.18417 19.7077 7.63701 20.529 8.54267C21.365 9.44834 21.783 10.783 21.783 12.5467V19.8158H20.221V12.7135C20.221 11.4106 19.9277 10.4176 19.341 9.73434C18.769 9.05111 17.955 8.70951 16.899 8.70951C15.6963 8.70951 14.7503 9.11467 14.061 9.92501C13.3717 10.7194 13.027 11.8237 13.027 13.2378V19.8158H11.465V12.7135C11.465 11.4106 11.1717 10.4176 10.585 9.73434C10.013 9.05111 9.19168 8.70951 8.12101 8.70951C6.93301 8.70951 5.98701 9.11467 5.28301 9.92501C4.59368 10.7194 4.24901 11.8237 4.24901 13.2378V19.8158H2.68701V7.27951H4.18301V9.56751C4.59368 8.80484 5.16568 8.21695 5.89901 7.80384C6.63234 7.39073 7.47568 7.18417 8.42901 7.18417C9.39701 7.18417 10.233 7.40661 10.937 7.85151C11.6557 8.2964 12.191 8.95578 12.543 9.82967C12.9683 9.00345 13.577 8.35995 14.369 7.89917C15.1757 7.42251 16.0923 7.18417 17.119 7.18417V7.18417Z" fill="#90CEA1"/>
</g>
<defs>
<clipPath id="clip0_68_4">
<rect width="25" height="13" fill="white" transform="translate(1 7)"/>
</clipPath>
</defs>
</svg>
