<svg width="149" height="24" viewBox="0 0 149 24" fill="none" xmlns="http://www.w3.org/2000/svg">
<path d="M20.65 7.1C22.63 7.1 24.18 7.67 25.3 8.81C26.44 9.95 27.01 11.63 27.01 13.85V23H24.88V14.06C24.88 12.42 24.48 11.17 23.68 10.31C22.9 9.45 21.79 9.02 20.35 9.02C18.71 9.02 17.42 9.53 16.48 10.55C15.54 11.55 15.07 12.94 15.07 14.72V23H12.94V14.06C12.94 12.42 12.54 11.17 11.74 10.31C10.96 9.45 9.84 9.02 8.38 9.02C6.76 9.02 5.47 9.53 4.51 10.55C3.57 11.55 3.1 12.94 3.1 14.72V23H0.97V7.22H3.01V10.1C3.57 9.14 4.35 8.4 5.35 7.88C6.35 7.36 7.5 7.1 8.8 7.1C10.12 7.1 11.26 7.38 12.22 7.94C13.2 8.5 13.93 9.33 14.41 10.43C14.99 9.39 15.82 8.58 16.9 8C18 7.4 19.25 7.1 20.65 7.1ZM39.295 23.15C37.775 23.15 36.405 22.81 35.185 22.13C33.965 21.43 33.005 20.47 32.305 19.25C31.605 18.03 31.255 16.65 31.255 15.11C31.255 13.57 31.605 12.19 32.305 10.97C33.005 9.75 33.965 8.8 35.185 8.12C36.405 7.44 37.775 7.1 39.295 7.1C40.815 7.1 42.185 7.44 43.405 8.12C44.625 8.8 45.575 9.75 46.255 10.97C46.955 12.19 47.305 13.57 47.305 15.11C47.305 16.65 46.955 18.03 46.255 19.25C45.575 20.47 44.625 21.43 43.405 22.13C42.185 22.81 40.815 23.15 39.295 23.15ZM39.295 21.26C40.415 21.26 41.415 21.01 42.295 20.51C43.195 19.99 43.895 19.26 44.395 18.32C44.895 17.38 45.145 16.31 45.145 15.11C45.145 13.91 44.895 12.84 44.395 11.9C43.895 10.96 43.195 10.24 42.295 9.74C41.415 9.22 40.415 8.96 39.295 8.96C38.175 8.96 37.165 9.22 36.265 9.74C35.385 10.24 34.685 10.96 34.165 11.9C33.665 12.84 33.415 13.91 33.415 15.11C33.415 16.31 33.665 17.38 34.165 18.32C34.685 19.26 35.385 19.99 36.265 20.51C37.165 21.01 38.175 21.26 39.295 21.26ZM64.4741 7.22L57.4541 23H55.2641L48.2741 7.22H50.4941L56.4041 20.66L62.3741 7.22H64.4741ZM67.4739 7.22H69.6039V23H67.4739V7.22ZM68.5539 3.77C68.1139 3.77 67.7439 3.62 67.4439 3.32C67.1439 3.02 66.9939 2.66 66.9939 2.24C66.9939 1.84 67.1439 1.49 67.4439 1.19C67.7439 0.889999 68.1139 0.739999 68.5539 0.739999C68.9939 0.739999 69.3639 0.889999 69.6639 1.19C69.9639 1.47 70.1139 1.81 70.1139 2.21C70.1139 2.65 69.9639 3.02 69.6639 3.32C69.3639 3.62 68.9939 3.77 68.5539 3.77ZM89.2705 15.77H76.0705C76.1905 17.41 76.8205 18.74 77.9605 19.76C79.1005 20.76 80.5405 21.26 82.2805 21.26C83.2605 21.26 84.1605 21.09 84.9805 20.75C85.8005 20.39 86.5105 19.87 87.1105 19.19L88.3105 20.57C87.6105 21.41 86.7305 22.05 85.6705 22.49C84.6305 22.93 83.4805 23.15 82.2205 23.15C80.6005 23.15 79.1605 22.81 77.9005 22.13C76.6605 21.43 75.6905 20.47 74.9905 19.25C74.2905 18.03 73.9405 16.65 73.9405 15.11C73.9405 13.57 74.2705 12.19 74.9305 10.97C75.6105 9.75 76.5305 8.8 77.6905 8.12C78.8705 7.44 80.1905 7.1 81.6505 7.1C83.1105 7.1 84.4205 7.44 85.5805 8.12C86.7405 8.8 87.6505 9.75 88.3105 10.97C88.9705 12.17 89.3005 13.55 89.3005 15.11L89.2705 15.77ZM81.6505 8.93C80.1305 8.93 78.8505 9.42 77.8105 10.4C76.7905 11.36 76.2105 12.62 76.0705 14.18H87.2605C87.1205 12.62 86.5305 11.36 85.4905 10.4C84.4705 9.42 83.1905 8.93 81.6505 8.93ZM95.676 10.31C96.176 9.25 96.916 8.45 97.896 7.91C98.896 7.37 100.126 7.1 101.586 7.1V9.17L101.076 9.14C99.416 9.14 98.116 9.65 97.176 10.67C96.236 11.69 95.766 13.12 95.766 14.96V23H93.636V7.22H95.676V10.31ZM110.933 7.1C112.993 7.1 114.573 7.62 115.673 8.66C116.773 9.68 117.323 11.2 117.323 13.22V23H115.283V20.54C114.803 21.36 114.093 22 113.153 22.46C112.233 22.92 111.133 23.15 109.853 23.15C108.093 23.15 106.693 22.73 105.653 21.89C104.613 21.05 104.093 19.94 104.093 18.56C104.093 17.22 104.573 16.14 105.533 15.32C106.513 14.5 108.063 14.09 110.183 14.09H115.193V13.13C115.193 11.77 114.813 10.74 114.053 10.04C113.293 9.32 112.183 8.96 110.723 8.96C109.723 8.96 108.763 9.13 107.843 9.47C106.923 9.79 106.133 10.24 105.473 10.82L104.513 9.23C105.313 8.55 106.273 8.03 107.393 7.67C108.513 7.29 109.693 7.1 110.933 7.1ZM110.183 21.47C111.383 21.47 112.413 21.2 113.273 20.66C114.133 20.1 114.773 19.3 115.193 18.26V15.68H110.243C107.543 15.68 106.193 16.62 106.193 18.5C106.193 19.42 106.543 20.15 107.243 20.69C107.943 21.21 108.923 21.47 110.183 21.47ZM131.419 22.04C131.019 22.4 130.519 22.68 129.919 22.88C129.339 23.06 128.729 23.15 128.089 23.15C126.609 23.15 125.469 22.75 124.669 21.95C123.869 21.15 123.469 20.02 123.469 18.56V9.02H120.649V7.22H123.469V3.77H125.599V7.22H130.399V9.02H125.599V18.44C125.599 19.38 125.829 20.1 126.289 20.6C126.769 21.08 127.449 21.32 128.329 21.32C128.769 21.32 129.189 21.25 129.589 21.11C130.009 20.97 130.369 20.77 130.669 20.51L131.419 22.04ZM148.48 15.77H135.28C135.4 17.41 136.03 18.74 137.17 19.76C138.31 20.76 139.75 21.26 141.49 21.26C142.47 21.26 143.37 21.09 144.19 20.75C145.01 20.39 145.72 19.87 146.32 19.19L147.52 20.57C146.82 21.41 145.94 22.05 144.88 22.49C143.84 22.93 142.69 23.15 141.43 23.15C139.81 23.15 138.37 22.81 137.11 22.13C135.87 21.43 134.9 20.47 134.2 19.25C133.5 18.03 133.15 16.65 133.15 15.11C133.15 13.57 133.48 12.19 134.14 10.97C134.82 9.75 135.74 8.8 136.9 8.12C138.08 7.44 139.4 7.1 140.86 7.1C142.32 7.1 143.63 7.44 144.79 8.12C145.95 8.8 146.86 9.75 147.52 10.97C148.18 12.17 148.51 13.55 148.51 15.11L148.48 15.77ZM140.86 8.93C139.34 8.93 138.06 9.42 137.02 10.4C136 11.36 135.42 12.62 135.28 14.18H146.47C146.33 12.62 145.74 11.36 144.7 10.4C143.68 9.42 142.4 8.93 140.86 8.93Z" fill="#90cea1"/>90cea1
</svg>
