<svg width="30" height="28" viewBox="0 0 30 28" fill="none" xmlns="http://www.w3.org/2000/svg">
<path d="M15 0L18.3677 10.3647H29.2658L20.4491 16.7705L23.8168 27.1353L15 20.7295L6.18322 27.1353L9.55093 16.7705L0.734152 10.3647H11.6323L15 0Z" fill="#C4C4C4" fill-opacity="0.5"/>
<path d="M15 1.61804L17.8922 10.5193L18.0044 10.8647H18.3677H27.727L20.1552 16.366L19.8613 16.5795L19.9735 16.925L22.8657 25.8262L15.2939 20.325L15 20.1115L14.7061 20.325L7.13428 25.8262L10.0265 16.925L10.1387 16.5795L9.84482 16.366L2.27299 10.8647H11.6323H11.9956L12.1078 10.5193L15 1.61804Z" stroke="white" stroke-opacity="0.5"/>
</svg>
